<?xml version="1.0" encoding="utf-8"?>
<!-- Generator: Adobe Illustrator 16.0.0, SVG Export Plug-In . SVG Version: 6.00 Build 0)  -->
<!DOCTYPE svg PUBLIC "-//W3C//DTD SVG 1.0//EN" "http://www.w3.org/TR/2001/REC-SVG-20010904/DTD/svg10.dtd">
<svg version="1.0" id="Ebene_1" xmlns="http://www.w3.org/2000/svg" xmlns:xlink="http://www.w3.org/1999/xlink" x="0px" y="0px"
	 width="595.28px" height="595.28px" viewBox="0 0 595.28 595.28" enable-background="new 0 0 595.28 595.28" xml:space="preserve">
<rect x="44.415" y="45.322" fill="#BE1622" width="506.452" height="506.451"/>
<g>
	<path fill="#F6F6F6" d="M129.745,423.161v-85.898h17.109l20.332,60.82c1.875,5.664,3.242,9.902,4.102,12.715
		c0.976-3.125,2.5-7.714,4.57-13.77l20.566-59.766h15.293v85.898h-10.957v-71.895L175.8,423.161h-10.254l-24.844-73.125v73.125
		H129.745z"/>
	<path fill="#F6F6F6" d="M269.315,415.485c-3.906,3.32-7.667,5.664-11.279,7.031c-3.613,1.367-7.491,2.051-11.631,2.051
		c-6.836,0-12.091-1.67-15.762-5.01c-3.672-3.34-5.508-7.607-5.508-12.803c0-3.047,0.693-5.83,2.08-8.35
		c1.386-2.52,3.202-4.541,5.449-6.064c2.246-1.523,4.775-2.675,7.588-3.457c2.07-0.547,5.194-1.074,9.375-1.582
		c8.516-1.016,14.785-2.227,18.809-3.633c0.038-1.444,0.059-2.363,0.059-2.754c0-4.297-0.996-7.324-2.988-9.082
		c-2.695-2.382-6.7-3.574-12.012-3.574c-4.961,0-8.623,0.87-10.986,2.607c-2.364,1.738-4.111,4.814-5.244,9.229l-10.313-1.406
		c0.938-4.414,2.48-7.978,4.629-10.693c2.147-2.715,5.253-4.805,9.316-6.27c4.063-1.465,8.769-2.197,14.121-2.197
		c5.312,0,9.629,0.625,12.949,1.875c3.319,1.251,5.762,2.822,7.324,4.717c1.562,1.896,2.656,4.287,3.281,7.178
		c0.352,1.797,0.527,5.039,0.527,9.727v14.063c0,9.806,0.225,16.006,0.674,18.604c0.448,2.599,1.338,5.089,2.666,7.471h-11.016
		C270.331,420.974,269.628,418.415,269.315,415.485z M268.437,391.931c-3.829,1.563-9.571,2.892-17.227,3.984
		c-4.336,0.625-7.403,1.328-9.199,2.109c-1.797,0.782-3.185,1.925-4.16,3.428c-0.977,1.504-1.465,3.174-1.465,5.01
		c0,2.813,1.063,5.156,3.193,7.031c2.129,1.875,5.244,2.813,9.346,2.813c4.063,0,7.676-0.888,10.84-2.666
		c3.164-1.777,5.487-4.209,6.973-7.295c1.133-2.382,1.699-5.897,1.699-10.547V391.931z"/>
	<path fill="#F6F6F6" d="M291.229,404.587l10.43-1.641c0.586,4.181,2.217,7.383,4.893,9.609c2.675,2.227,6.416,3.34,11.221,3.34
		c4.843,0,8.438-0.986,10.781-2.959c2.344-1.972,3.516-4.286,3.516-6.943c0-2.382-1.035-4.257-3.105-5.625
		c-1.445-0.938-5.039-2.129-10.781-3.574c-7.734-1.953-13.096-3.642-16.084-5.068c-2.988-1.426-5.254-3.398-6.797-5.918
		c-1.544-2.52-2.314-5.303-2.314-8.35c0-2.773,0.635-5.341,1.904-7.705c1.269-2.363,2.997-4.326,5.186-5.889
		c1.641-1.21,3.876-2.235,6.709-3.076c2.832-0.84,5.868-1.26,9.111-1.26c4.883,0,9.17,0.703,12.861,2.109s6.416,3.311,8.174,5.713
		s2.968,5.616,3.633,9.639l-10.313,1.406c-0.469-3.202-1.826-5.703-4.072-7.5c-2.247-1.796-5.42-2.695-9.521-2.695
		c-4.844,0-8.301,0.801-10.371,2.402c-2.071,1.603-3.105,3.478-3.105,5.625c0,1.368,0.43,2.599,1.289,3.691
		c0.858,1.134,2.206,2.071,4.043,2.813c1.055,0.391,4.16,1.289,9.316,2.695c7.461,1.992,12.665,3.624,15.615,4.893
		c2.949,1.27,5.264,3.115,6.943,5.537c1.679,2.423,2.52,5.43,2.52,9.023c0,3.516-1.025,6.826-3.076,9.932s-5.01,5.508-8.877,7.207
		s-8.242,2.549-13.125,2.549c-8.086,0-14.248-1.679-18.486-5.039C295.105,416.169,292.401,411.188,291.229,404.587z"/>
	<path fill="#F6F6F6" d="M378.476,413.728l1.523,9.316c-2.969,0.624-5.625,0.938-7.969,0.938c-3.829,0-6.797-0.606-8.906-1.816
		s-3.595-2.803-4.453-4.775c-0.859-1.972-1.289-6.123-1.289-12.451v-35.801h-7.734v-8.203h7.734v-15.41l10.488-6.328v21.738h10.605
		v8.203H367.87v36.387c0,3.009,0.185,4.942,0.557,5.801c0.371,0.859,0.976,1.544,1.816,2.051c0.84,0.508,2.041,0.762,3.604,0.762
		C375.019,414.138,376.562,414.001,378.476,413.728z"/>
	<path fill="#F6F6F6" d="M431.386,403.122l10.898,1.348c-1.72,6.367-4.902,11.309-9.551,14.824
		c-4.649,3.516-10.586,5.273-17.813,5.273c-9.103,0-16.318-2.803-21.65-8.408c-5.332-5.604-7.998-13.467-7.998-23.584
		c0-10.468,2.695-18.594,8.086-24.375c5.391-5.78,12.383-8.672,20.977-8.672c8.32,0,15.117,2.833,20.391,8.496
		c5.273,5.664,7.91,13.633,7.91,23.906c0,0.625-0.021,1.563-0.059,2.813h-46.406c0.39,6.836,2.323,12.07,5.801,15.703
		c3.477,3.633,7.813,5.449,13.008,5.449c3.867,0,7.168-1.016,9.902-3.047C427.615,410.818,429.783,407.575,431.386,403.122z
		 M396.757,386.071h34.746c-0.469-5.234-1.797-9.16-3.984-11.777c-3.36-4.063-7.715-6.094-13.066-6.094
		c-4.844,0-8.916,1.621-12.217,4.863C398.934,376.307,397.108,380.643,396.757,386.071z"/>
	<path fill="#F6F6F6" d="M455.409,423.161v-62.227h9.492v9.434c2.422-4.414,4.658-7.324,6.709-8.73s4.307-2.109,6.768-2.109
		c3.554,0,7.168,1.134,10.84,3.398l-3.633,9.785c-2.578-1.523-5.156-2.285-7.734-2.285c-2.306,0-4.375,0.694-6.211,2.08
		c-1.837,1.387-3.145,3.311-3.926,5.771c-1.172,3.75-1.758,7.852-1.758,12.305v32.578H455.409z"/>
	<path fill="#F6F6F6" d="M491.269,404.587l10.43-1.641c0.586,4.181,2.217,7.383,4.893,9.609c2.675,2.227,6.416,3.34,11.221,3.34
		c4.843,0,8.438-0.986,10.781-2.959c2.344-1.972,3.516-4.286,3.516-6.943c0-2.382-1.035-4.257-3.105-5.625
		c-1.445-0.938-5.039-2.129-10.781-3.574c-7.734-1.953-13.096-3.642-16.084-5.068c-2.988-1.426-5.254-3.398-6.797-5.918
		c-1.544-2.52-2.314-5.303-2.314-8.35c0-2.773,0.635-5.341,1.904-7.705c1.269-2.363,2.997-4.326,5.186-5.889
		c1.641-1.21,3.876-2.235,6.709-3.076c2.832-0.84,5.868-1.26,9.111-1.26c4.883,0,9.17,0.703,12.861,2.109s6.416,3.311,8.174,5.713
		s2.968,5.616,3.633,9.639l-10.313,1.406c-0.469-3.202-1.826-5.703-4.072-7.5c-2.247-1.796-5.42-2.695-9.521-2.695
		c-4.844,0-8.301,0.801-10.371,2.402c-2.071,1.603-3.105,3.478-3.105,5.625c0,1.368,0.43,2.599,1.289,3.691
		c0.858,1.134,2.206,2.071,4.043,2.813c1.055,0.391,4.16,1.289,9.316,2.695c7.461,1.992,12.665,3.624,15.615,4.893
		c2.949,1.27,5.264,3.115,6.943,5.537c1.679,2.423,2.52,5.43,2.52,9.023c0,3.516-1.025,6.826-3.076,9.932s-5.01,5.508-8.877,7.207
		s-8.242,2.549-13.125,2.549c-8.086,0-14.248-1.679-18.486-5.039C495.145,416.169,492.44,411.188,491.269,404.587z"/>
</g>
<rect x="41.317" y="137.064" fill="#FFFFFF" width="340" height="112.258"/>
<g>
	<rect x="44.332" y="145.677" fill="none" width="346.231" height="109.678"/>
	<path d="M93.785,197.904v-10.078l36.387-0.059v31.875c-5.586,4.453-11.348,7.803-17.285,10.049
		c-5.938,2.246-12.032,3.369-18.281,3.369c-8.438,0-16.104-1.806-22.998-5.42c-6.895-3.613-12.1-8.837-15.615-15.674
		c-3.516-6.835-5.273-14.473-5.273-22.91c0-8.359,1.748-16.162,5.244-23.408c3.496-7.246,8.525-12.627,15.088-16.143
		s14.121-5.273,22.676-5.273c6.211,0,11.826,1.006,16.846,3.018c5.019,2.012,8.955,4.815,11.807,8.408
		c2.851,3.594,5.019,8.282,6.504,14.063l-10.254,2.813c-1.289-4.375-2.891-7.812-4.805-10.313c-1.915-2.5-4.649-4.501-8.203-6.006
		c-3.555-1.503-7.5-2.256-11.836-2.256c-5.196,0-9.688,0.791-13.477,2.373c-3.79,1.582-6.846,3.662-9.17,6.24
		c-2.325,2.578-4.131,5.411-5.42,8.496c-2.188,5.313-3.281,11.074-3.281,17.285c0,7.657,1.318,14.063,3.955,19.219
		s6.475,8.985,11.514,11.484c5.039,2.5,10.39,3.75,16.055,3.75c4.922,0,9.727-0.947,14.414-2.842
		c4.688-1.894,8.242-3.916,10.664-6.064v-15.996H93.785z"/>
	<path d="M145.464,231.596v-62.227h9.492v9.434c2.421-4.414,4.658-7.324,6.709-8.73s4.307-2.109,6.768-2.109
		c3.554,0,7.167,1.133,10.84,3.398l-3.633,9.785c-2.578-1.523-5.156-2.285-7.734-2.285c-2.305,0-4.375,0.694-6.211,2.08
		c-1.836,1.387-3.145,3.311-3.926,5.771c-1.172,3.75-1.758,7.852-1.758,12.305v32.578H145.464z"/>
	<path d="M226.148,223.92c-3.906,3.321-7.667,5.665-11.279,7.031c-3.613,1.367-7.491,2.051-11.631,2.051
		c-6.836,0-12.091-1.67-15.762-5.01c-3.672-3.34-5.508-7.607-5.508-12.803c0-3.047,0.693-5.83,2.08-8.35
		c1.386-2.52,3.202-4.541,5.449-6.064c2.246-1.523,4.775-2.675,7.588-3.457c2.07-0.546,5.194-1.074,9.375-1.582
		c8.516-1.015,14.785-2.227,18.809-3.633c0.038-1.445,0.059-2.363,0.059-2.754c0-4.296-0.996-7.324-2.988-9.082
		c-2.695-2.382-6.7-3.574-12.012-3.574c-4.961,0-8.623,0.87-10.986,2.607c-2.364,1.739-4.111,4.815-5.244,9.229l-10.313-1.406
		c0.938-4.414,2.48-7.978,4.629-10.693c2.147-2.714,5.253-4.805,9.316-6.27c4.063-1.465,8.769-2.197,14.121-2.197
		c5.312,0,9.629,0.625,12.949,1.875c3.319,1.25,5.762,2.823,7.324,4.717c1.562,1.895,2.656,4.288,3.281,7.178
		c0.352,1.797,0.527,5.039,0.527,9.727v14.063c0,9.805,0.225,16.006,0.674,18.604c0.448,2.598,1.338,5.088,2.666,7.471h-11.016
		C227.164,229.409,226.46,226.85,226.148,223.92z M225.269,200.365c-3.829,1.563-9.571,2.891-17.227,3.984
		c-4.336,0.625-7.403,1.329-9.199,2.109c-1.797,0.782-3.185,1.924-4.16,3.428c-0.977,1.504-1.465,3.174-1.465,5.01
		c0,2.813,1.063,5.156,3.193,7.031c2.129,1.875,5.244,2.813,9.346,2.813c4.063,0,7.676-0.888,10.84-2.666
		c3.164-1.777,5.487-4.208,6.973-7.295c1.133-2.382,1.699-5.898,1.699-10.547V200.365z"/>
	<path d="M292.652,231.596v-7.852c-3.946,6.172-9.747,9.258-17.402,9.258c-4.961,0-9.521-1.368-13.682-4.102
		s-7.383-6.552-9.668-11.455c-2.285-4.902-3.428-10.537-3.428-16.904c0-6.211,1.034-11.845,3.105-16.904
		c2.07-5.058,5.176-8.936,9.316-11.631c4.14-2.695,8.769-4.043,13.887-4.043c3.75,0,7.09,0.791,10.02,2.373s5.312,3.643,7.148,6.182
		v-30.82h10.489v85.898H292.652z M259.312,200.541c0,7.969,1.679,13.926,5.039,17.871c3.359,3.946,7.324,5.918,11.895,5.918
		c4.608,0,8.525-1.884,11.748-5.654c3.223-3.769,4.834-9.521,4.834-17.256c0-8.515-1.641-14.766-4.922-18.75
		s-7.324-5.977-12.129-5.977c-4.688,0-8.604,1.915-11.748,5.742C260.884,186.264,259.312,192.299,259.312,200.541z"/>
	<path d="M361.617,211.557l10.898,1.348c-1.721,6.368-4.902,11.309-9.551,14.824c-4.65,3.516-10.586,5.273-17.813,5.273
		c-9.104,0-16.318-2.802-21.65-8.408c-5.332-5.605-7.998-13.466-7.998-23.584c0-10.468,2.695-18.593,8.086-24.375
		c5.391-5.781,12.383-8.672,20.977-8.672c8.32,0,15.117,2.833,20.391,8.496c5.273,5.665,7.91,13.633,7.91,23.906
		c0,0.625-0.021,1.563-0.059,2.813h-46.406c0.389,6.836,2.322,12.07,5.801,15.703c3.477,3.633,7.813,5.449,13.008,5.449
		c3.867,0,7.168-1.015,9.902-3.047C357.846,219.252,360.014,216.01,361.617,211.557z M326.988,194.506h34.746
		c-0.469-5.234-1.797-9.16-3.984-11.777c-3.361-4.062-7.715-6.094-13.066-6.094c-4.844,0-8.916,1.622-12.217,4.863
		C329.164,184.741,327.34,189.077,326.988,194.506z"/>
</g>
<g>
</g>
<g>
</g>
<g>
</g>
<g>
</g>
<g>
</g>
<g>
</g>
</svg>
