<?xml version="1.0" encoding="utf-8"?>
<!-- Generator: Adobe Illustrator 16.0.0, SVG Export Plug-In . SVG Version: 6.00 Build 0)  -->
<!DOCTYPE svg PUBLIC "-//W3C//DTD SVG 1.0//EN" "http://www.w3.org/TR/2001/REC-SVG-20010904/DTD/svg10.dtd">
<svg version="1.0" id="Ebene_1" xmlns="http://www.w3.org/2000/svg" xmlns:xlink="http://www.w3.org/1999/xlink" x="0px" y="0px"
	 width="150px" height="149px" viewBox="0 0 150 149" enable-background="new 0 0 150 149" xml:space="preserve">
<rect x="-0.333" y="0" fill="#BD1622" width="150.333" height="150"/>
<g>
	<path fill="#F5F5F5" d="M25.266,111.161V85.89h5.067l6.022,17.894c0.555,1.666,0.96,2.913,1.215,3.74
		c0.289-0.919,0.74-2.27,1.354-4.051l6.092-17.583h4.529v25.271H46.3V90.01l-7.394,21.151H35.87l-7.358-21.514v21.514H25.266z"/>
	<path fill="#F5F5F5" d="M66.606,108.903c-1.157,0.977-2.271,1.666-3.341,2.068c-1.07,0.402-2.219,0.604-3.445,0.604
		c-2.025,0-3.581-0.491-4.668-1.475c-1.087-0.982-1.631-2.237-1.631-3.767c0-0.896,0.206-1.715,0.616-2.456s0.949-1.336,1.614-1.784
		c0.666-0.448,1.415-0.787,2.248-1.018c0.613-0.16,1.539-0.315,2.777-0.465c2.522-0.299,4.379-0.655,5.571-1.069
		c0.011-0.425,0.017-0.694,0.017-0.81c0-1.265-0.295-2.155-0.885-2.672c-0.798-0.701-1.984-1.052-3.558-1.052
		c-1.469,0-2.554,0.256-3.254,0.767c-0.7,0.512-1.218,1.417-1.553,2.716l-3.055-0.414c0.278-1.299,0.735-2.348,1.371-3.146
		c0.636-0.798,1.556-1.413,2.759-1.844c1.203-0.432,2.598-0.646,4.183-0.646c1.573,0,2.852,0.184,3.835,0.552
		c0.983,0.367,1.707,0.83,2.169,1.388c0.463,0.557,0.787,1.261,0.972,2.111c0.104,0.528,0.156,1.482,0.156,2.861v4.138
		c0,2.885,0.066,4.709,0.2,5.473c0.133,0.765,0.396,1.497,0.79,2.198H67.23C66.907,110.518,66.698,109.765,66.606,108.903z
		 M66.346,101.973c-1.134,0.46-2.835,0.851-5.103,1.173c-1.284,0.184-2.193,0.391-2.725,0.62c-0.533,0.23-0.943,0.566-1.232,1.009
		c-0.29,0.442-0.434,0.934-0.434,1.474c0,0.827,0.315,1.518,0.946,2.068c0.63,0.552,1.553,0.828,2.768,0.828
		c1.203,0,2.273-0.262,3.21-0.784c0.938-0.523,1.625-1.238,2.065-2.146c0.335-0.701,0.503-1.735,0.503-3.104V101.973z"/>
	<path fill="#F5F5F5" d="M73.096,105.696l3.089-0.482c0.174,1.229,0.656,2.172,1.449,2.827c0.792,0.655,1.9,0.982,3.323,0.982
		c1.435,0,2.499-0.29,3.193-0.87s1.041-1.262,1.041-2.043c0-0.701-0.307-1.253-0.92-1.655c-0.428-0.275-1.492-0.626-3.192-1.052
		c-2.291-0.574-3.879-1.071-4.765-1.49c-0.885-0.42-1.556-1-2.013-1.741s-0.685-1.561-0.685-2.457c0-0.815,0.188-1.571,0.564-2.267
		c0.375-0.695,0.888-1.272,1.536-1.732c0.486-0.356,1.148-0.658,1.987-0.905s1.738-0.37,2.698-0.37c1.446,0,2.717,0.206,3.81,0.62
		c1.094,0.414,1.9,0.974,2.421,1.681c0.521,0.707,0.88,1.652,1.076,2.836l-3.055,0.414c-0.139-0.942-0.541-1.678-1.206-2.207
		c-0.665-0.528-1.605-0.793-2.82-0.793c-1.435,0-2.458,0.236-3.071,0.707c-0.613,0.472-0.92,1.022-0.92,1.655
		c0,0.402,0.127,0.764,0.382,1.086c0.254,0.333,0.653,0.609,1.197,0.827c0.313,0.115,1.232,0.379,2.76,0.793
		c2.21,0.586,3.751,1.066,4.625,1.439c0.873,0.373,1.559,0.917,2.057,1.629c0.497,0.713,0.746,1.598,0.746,2.655
		c0,1.034-0.304,2.008-0.911,2.922c-0.607,0.913-1.483,1.62-2.629,2.12s-2.441,0.75-3.888,0.75c-2.396,0-4.221-0.494-5.476-1.482
		C74.245,109.104,73.443,107.639,73.096,105.696z"/>
	<path fill="#F5F5F5" d="M98.938,108.386l0.451,2.741c-0.879,0.184-1.666,0.275-2.359,0.275c-1.135,0-2.014-0.178-2.639-0.534
		s-1.064-0.824-1.318-1.405c-0.255-0.58-0.382-1.801-0.382-3.663V95.268h-2.291v-2.414h2.291V88.32l3.106-1.862v6.396h3.141v2.414
		h-3.141v10.705c0,0.885,0.055,1.454,0.165,1.706c0.109,0.253,0.289,0.454,0.537,0.604c0.249,0.149,0.604,0.225,1.067,0.225
		C97.914,108.507,98.371,108.466,98.938,108.386z"/>
	<path fill="#F5F5F5" d="M114.609,105.266l3.229,0.396c-0.51,1.873-1.452,3.327-2.829,4.361s-3.136,1.552-5.276,1.552
		c-2.695,0-4.833-0.825-6.412-2.474c-1.58-1.649-2.369-3.962-2.369-6.938c0-3.08,0.798-5.471,2.395-7.172
		c1.597-1.7,3.668-2.551,6.214-2.551c2.464,0,4.478,0.833,6.039,2.499c1.563,1.667,2.343,4.011,2.343,7.033
		c0,0.185-0.006,0.46-0.018,0.828h-13.745c0.116,2.011,0.688,3.551,1.719,4.619c1.029,1.069,2.313,1.604,3.853,1.604
		c1.146,0,2.123-0.299,2.933-0.896C113.493,107.529,114.135,106.576,114.609,105.266z M104.353,100.249h10.292
		c-0.14-1.54-0.532-2.694-1.181-3.465c-0.995-1.195-2.285-1.793-3.87-1.793c-1.435,0-2.641,0.478-3.618,1.431
		C104.997,97.376,104.457,98.652,104.353,100.249z"/>
	<path fill="#F5F5F5" d="M121.726,111.161V92.854h2.812v2.775c0.717-1.298,1.379-2.154,1.986-2.568s1.276-0.62,2.005-0.62
		c1.053,0,2.123,0.333,3.211,0.999l-1.076,2.879c-0.764-0.448-1.527-0.672-2.291-0.672c-0.683,0-1.296,0.204-1.84,0.612
		c-0.544,0.407-0.931,0.974-1.162,1.697c-0.348,1.104-0.521,2.311-0.521,3.62v9.585H121.726z"/>
	<path fill="#F5F5F5" d="M132.347,105.696l3.089-0.482c0.174,1.229,0.656,2.172,1.449,2.827c0.792,0.655,1.9,0.982,3.323,0.982
		c1.435,0,2.499-0.29,3.193-0.87s1.041-1.262,1.041-2.043c0-0.701-0.307-1.253-0.92-1.655c-0.428-0.275-1.492-0.626-3.192-1.052
		c-2.291-0.574-3.879-1.071-4.765-1.49c-0.885-0.42-1.556-1-2.013-1.741s-0.686-1.561-0.686-2.457c0-0.815,0.188-1.571,0.563-2.267
		s0.888-1.272,1.536-1.732c0.486-0.356,1.148-0.658,1.987-0.905s1.738-0.37,2.698-0.37c1.446,0,2.717,0.206,3.81,0.62
		c1.094,0.414,1.9,0.974,2.421,1.681c0.521,0.707,0.88,1.652,1.076,2.836l-3.055,0.414c-0.139-0.942-0.541-1.678-1.206-2.207
		c-0.665-0.528-1.605-0.793-2.82-0.793c-1.435,0-2.458,0.236-3.071,0.707c-0.613,0.472-0.92,1.022-0.92,1.655
		c0,0.402,0.127,0.764,0.382,1.086c0.254,0.333,0.653,0.609,1.197,0.827c0.313,0.115,1.232,0.379,2.76,0.793
		c2.21,0.586,3.751,1.066,4.625,1.439c0.873,0.373,1.559,0.917,2.057,1.629c0.497,0.713,0.746,1.598,0.746,2.655
		c0,1.034-0.304,2.008-0.911,2.922c-0.607,0.913-1.483,1.62-2.629,2.12s-2.441,0.75-3.888,0.75c-2.396,0-4.221-0.494-5.476-1.482
		C133.494,109.104,132.693,107.639,132.347,105.696z"/>
</g>
<rect x="-0.925" y="26.991" fill="#FFFFFF" width="100.705" height="33.026"/>
<g>
	<rect x="-0.032" y="29.525" fill="none" width="102.551" height="32.267"/>
	<path fill="#1D1D1B" d="M14.616,44.89v-2.965l10.778-0.018v9.378c-1.655,1.31-3.361,2.295-5.12,2.957
		c-1.759,0.661-3.563,0.991-5.415,0.991c-2.499,0-4.77-0.532-6.812-1.595s-3.583-2.6-4.625-4.611
		C2.38,47.017,1.86,44.77,1.86,42.287c0-2.459,0.518-4.755,1.553-6.887s2.525-3.715,4.469-4.75c1.943-1.034,4.183-1.551,6.716-1.551
		c1.839,0,3.502,0.296,4.99,0.888c1.486,0.592,2.652,1.417,3.497,2.474c0.845,1.058,1.487,2.437,1.927,4.137l-3.037,0.828
		c-0.382-1.287-0.856-2.298-1.423-3.034c-0.567-0.735-1.377-1.324-2.43-1.767s-2.221-0.664-3.506-0.664
		c-1.539,0-2.869,0.232-3.992,0.698c-1.122,0.466-2.028,1.078-2.716,1.836c-0.688,0.759-1.224,1.592-1.605,2.5
		c-0.648,1.563-0.972,3.258-0.972,5.085c0,2.253,0.391,4.137,1.171,5.654s1.918,2.644,3.41,3.379
		c1.493,0.735,3.078,1.103,4.755,1.103c1.458,0,2.881-0.278,4.27-0.836c1.388-0.557,2.441-1.152,3.158-1.784V44.89H14.616z"/>
	<path fill="#1D1D1B" d="M29.923,54.802V36.495h2.812v2.775c0.717-1.299,1.38-2.155,1.987-2.569
		c0.607-0.414,1.275-0.621,2.004-0.621c1.053,0,2.123,0.333,3.211,1l-1.076,2.879c-0.764-0.448-1.527-0.672-2.291-0.672
		c-0.683,0-1.296,0.204-1.839,0.612c-0.544,0.408-0.932,0.974-1.163,1.698c-0.347,1.103-0.521,2.31-0.521,3.62v9.584H29.923z"/>
	<path fill="#1D1D1B" d="M53.821,52.544c-1.157,0.977-2.271,1.667-3.341,2.069c-1.07,0.402-2.219,0.603-3.445,0.603
		c-2.025,0-3.581-0.491-4.668-1.474c-1.087-0.983-1.631-2.238-1.631-3.767c0-0.896,0.206-1.715,0.616-2.457s0.949-1.336,1.614-1.784
		c0.666-0.448,1.415-0.787,2.248-1.017c0.613-0.161,1.539-0.316,2.777-0.465c2.522-0.299,4.379-0.655,5.571-1.069
		c0.011-0.425,0.017-0.695,0.017-0.811c0-1.264-0.295-2.155-0.885-2.672C51.894,39,50.708,38.65,49.135,38.65
		c-1.469,0-2.554,0.256-3.254,0.767c-0.7,0.511-1.218,1.417-1.553,2.715l-3.055-0.414c0.278-1.299,0.735-2.347,1.371-3.146
		s1.556-1.414,2.759-1.845c1.203-0.431,2.598-0.646,4.183-0.646c1.573,0,2.852,0.184,3.835,0.552
		c0.983,0.368,1.707,0.831,2.169,1.388c0.463,0.558,0.787,1.261,0.972,2.112c0.104,0.529,0.156,1.482,0.156,2.861v4.138
		c0,2.884,0.066,4.709,0.2,5.473c0.133,0.764,0.396,1.497,0.79,2.198h-3.263C54.122,54.159,53.913,53.406,53.821,52.544z
		 M53.561,45.614c-1.134,0.459-2.835,0.851-5.103,1.172c-1.284,0.184-2.193,0.391-2.725,0.621c-0.533,0.23-0.943,0.566-1.232,1.009
		c-0.29,0.442-0.434,0.934-0.434,1.474c0,0.828,0.315,1.517,0.946,2.069c0.63,0.552,1.553,0.827,2.768,0.827
		c1.203,0,2.273-0.261,3.21-0.784c0.938-0.523,1.625-1.238,2.065-2.146c0.335-0.701,0.503-1.735,0.503-3.103V45.614z"/>
	<path fill="#1D1D1B" d="M73.519,54.802v-2.31c-1.169,1.816-2.887,2.724-5.155,2.724c-1.469,0-2.82-0.402-4.052-1.207
		c-1.232-0.804-2.187-1.928-2.864-3.37c-0.677-1.442-1.015-3.1-1.015-4.973c0-1.828,0.307-3.485,0.92-4.974
		c0.613-1.488,1.533-2.629,2.759-3.422s2.597-1.189,4.113-1.189c1.111,0,2.1,0.233,2.968,0.698s1.573,1.072,2.117,1.819v-9.067
		h3.107v25.271H73.519z M63.644,45.666c0,2.344,0.498,4.097,1.493,5.257c0.995,1.161,2.169,1.741,3.523,1.741
		c1.365,0,2.525-0.554,3.48-1.664c0.955-1.109,1.432-2.801,1.432-5.077c0-2.505-0.486-4.344-1.458-5.516
		c-0.972-1.172-2.169-1.758-3.593-1.758c-1.388,0-2.548,0.563-3.479,1.689C64.109,41.465,63.644,43.241,63.644,45.666z"/>
	<path fill="#1D1D1B" d="M93.945,48.907l3.229,0.396c-0.51,1.873-1.452,3.327-2.829,4.361s-3.136,1.551-5.276,1.551
		c-2.695,0-4.833-0.824-6.412-2.474c-1.58-1.649-2.369-3.962-2.369-6.938c0-3.08,0.798-5.47,2.395-7.171
		c1.597-1.701,3.668-2.551,6.214-2.551c2.464,0,4.478,0.833,6.039,2.5c1.563,1.667,2.343,4.011,2.343,7.034
		c0,0.184-0.006,0.459-0.018,0.827H83.515c0.116,2.011,0.688,3.551,1.719,4.62c1.029,1.069,2.313,1.603,3.853,1.603
		c1.146,0,2.123-0.299,2.933-0.896C92.829,51.171,93.471,50.217,93.945,48.907z M83.688,43.89H93.98
		c-0.14-1.54-0.532-2.695-1.181-3.465c-0.995-1.195-2.285-1.793-3.87-1.793c-1.435,0-2.641,0.477-3.618,1.431
		C84.333,41.018,83.793,42.293,83.688,43.89z"/>
</g>
<g>
</g>
<g>
</g>
<g>
</g>
<g>
</g>
<g>
</g>
<g>
</g>
<g>
</g>
<g>
</g>
<g>
</g>
<g>
</g>
<g>
</g>
<g>
</g>
<g>
</g>
<g>
</g>
<g>
</g>
</svg>
